<svg xmlns="http://www.w3.org/2000/svg" viewBox="0 0 64 64" fill="none">
  <!-- Background -->
  <rect width="64" height="64" rx="12" fill="#2563EB"/>
  
  <!-- Building outline -->
  <rect x="14" y="12" width="36" height="40" rx="2" fill="#DBEAFE" stroke="#1E40AF" stroke-width="2"/>
  
  <!-- Windows - 3 rows x 3 columns -->
  <rect x="20" y="18" width="6" height="6" rx="1" fill="#3B82F6"/>
  <rect x="29" y="18" width="6" height="6" rx="1" fill="#3B82F6"/>
  <rect x="38" y="18" width="6" height="6" rx="1" fill="#3B82F6"/>
  
  <rect x="20" y="27" width="6" height="6" rx="1" fill="#3B82F6"/>
  <rect x="29" y="27" width="6" height="6" rx="1" fill="#3B82F6"/>
  <rect x="38" y="27" width="6" height="6" rx="1" fill="#3B82F6"/>
  
  <rect x="20" y="36" width="6" height="6" rx="1" fill="#3B82F6"/>
  <rect x="29" y="36" width="6" height="6" rx="1" fill="#3B82F6"/>
  <rect x="38" y="36" width="6" height="6" rx="1" fill="#3B82F6"/>
  
  <!-- Door -->
  <rect x="27" y="44" width="10" height="8" rx="1" fill="#1E40AF"/>
  
  <!-- Smart indicator (small circle) -->
  <circle cx="54" cy="18" r="6" fill="#10B981"/>
  <circle cx="54" cy="18" r="3" fill="#FFFFFF"/>
</svg>
